<?xml version="1.0" encoding="UTF-8" standalone="no"?>
<!DOCTYPE svg PUBLIC "-//W3C//DTD SVG 1.1//EN" "http://www.w3.org/Graphics/SVG/1.1/DTD/svg11.dtd">
<svg width="100%" height="100%" viewBox="0 0 1169 205" version="1.1" xmlns="http://www.w3.org/2000/svg" xmlns:xlink="http://www.w3.org/1999/xlink" xml:space="preserve" xmlns:serif="http://www.serif.com/" style="fill-rule:evenodd;clip-rule:evenodd;stroke-linecap:round;">
    <g id="top_outsideCutPath" transform="matrix(1,0,0,1,-1374.72,-1394.56)">
        <path d="M1391.81,1411.65L1391.81,1453.29L1377.64,1453.29L1377.64,1540.1L1391.81,1540.1L1391.81,1581.73L1481.28,1581.73L1481.28,1595.91L1568.09,1595.91L1568.09,1581.73L1654.9,1581.73L1654.9,1595.91L1741.71,1595.91L1741.71,1581.73L1828.53,1581.73L1828.53,1595.91L1915.34,1595.91L1915.34,1581.73L2002.15,1581.73L2002.15,1595.91L2088.96,1595.91L2088.96,1581.73L2175.77,1581.73L2175.77,1595.91L2262.58,1595.91L2262.58,1581.73L2349.39,1581.73L2349.39,1595.91L2436.2,1595.91L2436.2,1581.73L2525.67,1581.73L2525.67,1540.1L2539.84,1540.1L2539.84,1453.29L2525.67,1453.29L2525.67,1411.65L2436.2,1411.65L2436.2,1397.48L2349.39,1397.48L2349.39,1411.65L2262.58,1411.65L2262.58,1397.48L2175.77,1397.48L2175.77,1411.65L2088.96,1411.65L2088.96,1397.48L2002.15,1397.48L2002.15,1411.65L1915.34,1411.65L1915.34,1397.48L1828.53,1397.48L1828.53,1411.65L1741.71,1411.65L1741.71,1397.48L1654.9,1397.48L1654.9,1411.65L1568.09,1411.65L1568.09,1397.48L1481.28,1397.48L1481.28,1411.65L1391.81,1411.65Z" style="fill:none;stroke:rgb(255,0,0);stroke-width:1.42px;"/>
    </g>
</svg>
