<?xml version="1.0" encoding="UTF-8" standalone="no"?>
<!DOCTYPE svg PUBLIC "-//W3C//DTD SVG 1.1//EN" "http://www.w3.org/Graphics/SVG/1.1/DTD/svg11.dtd">
<svg width="100%" height="100%" viewBox="0 0 2540 1596" version="1.1" xmlns="http://www.w3.org/2000/svg" xmlns:xlink="http://www.w3.org/1999/xlink" xml:space="preserve" xmlns:serif="http://www.serif.com/" style="fill-rule:evenodd;clip-rule:evenodd;stroke-linecap:round;">
    <g id="svgGroup">
        <path id="front_outsideCutPath" d="M-0,802.205L-0,895.218L14.173,895.218L14.173,982.029L-0,982.029L-0,1068.84L14.173,1068.84L14.173,1155.65L-0,1155.65L-0,1242.46L14.173,1242.46L14.173,1329.27L-0,1329.27L-0,1416.08L14.173,1416.08L14.173,1502.89L-0,1502.89L-0,1595.91L103.643,1595.91L103.643,1581.73L190.454,1581.73L190.454,1595.91L277.265,1595.91L277.265,1581.73L364.076,1581.73L364.076,1595.91L450.887,1595.91L450.887,1581.73L537.698,1581.73L537.698,1595.91L624.509,1595.91L624.509,1581.73L711.32,1581.73L711.32,1595.91L798.131,1595.91L798.131,1581.73L884.942,1581.73L884.942,1595.91L971.753,1595.91L971.753,1581.73L1058.56,1581.73L1058.56,1595.91L1162.2,1595.91L1162.2,1502.89L1148.03,1502.89L1148.03,1416.08L1162.2,1416.08L1162.2,1329.27L1148.03,1329.27L1148.03,1242.46L1162.2,1242.46L1162.2,1155.65L1148.03,1155.65L1148.03,1068.84L1162.2,1068.84L1162.2,982.029L1148.03,982.029L1148.03,895.218L1162.2,895.218L1162.2,802.205L1058.56,802.205L1058.56,816.378L971.753,816.378L971.753,802.205L884.942,802.205L884.942,816.378L798.131,816.378L798.131,802.205L711.32,802.205L711.32,816.378L624.509,816.378L624.509,802.205L537.698,802.205L537.698,816.378L450.887,816.378L450.887,802.205L364.076,802.205L364.076,816.378L277.265,816.378L277.265,802.205L190.454,802.205L190.454,816.378L103.643,816.378L103.643,802.205L-0,802.205Z" style="fill:none;stroke:rgb(255,0,0);stroke-width:1.42px;"/>
        <path id="front_labelLayer" d="M696.787,1259.01L683.918,1259.01L683.918,1204.05C683.929,1202.14 683.789,1200.24 683.501,1198.35C683.184,1196.35 682.683,1194.55 681.999,1192.95C681.322,1191.34 680.373,1189.85 679.192,1188.55C676.04,1185.14 671.105,1183.44 664.387,1183.44C661.943,1183.42 659.503,1183.63 657.099,1184.07C651.842,1185.08 647.76,1187.27 644.854,1190.64C643.268,1192.54 642.03,1194.71 641.197,1197.04C639.502,1201.55 638.654,1207.35 638.654,1214.44L638.654,1259.01L625.788,1259.01L625.788,1174.06L636.25,1174.06L638.342,1185.68L638.963,1185.68C641.599,1181.5 645.294,1178.26 650.047,1175.96C653.939,1174.1 658.143,1172.97 662.445,1172.65C663.607,1172.55 664.772,1172.51 665.938,1172.51C668.834,1172.49 671.726,1172.72 674.583,1173.19C680.625,1174.24 685.442,1176.48 689.034,1179.91C694.203,1184.84 696.787,1192.74 696.787,1203.59L696.787,1259.01ZM449.606,1174.06L449.606,1184.05L427.98,1184.05L427.98,1259.01L415.114,1259.01L415.114,1184.05L399.923,1184.05L399.923,1178.24L415.114,1173.59L415.114,1168.86C415.069,1164.89 415.478,1160.93 416.333,1157.05C419.368,1144.05 428.083,1137.55 442.477,1137.55C444.439,1137.56 446.398,1137.71 448.339,1138C450.24,1138.27 452.249,1138.67 454.365,1139.19C455.682,1139.51 456.99,1139.87 458.289,1140.26L454.955,1150.57C451.431,1149.43 448.272,1148.7 445.479,1148.37C444.405,1148.24 443.326,1148.17 442.244,1148.17C437.386,1148.17 433.794,1149.78 431.47,1153.01C430.62,1154.23 429.957,1155.57 429.503,1156.98C428.631,1159.57 428.134,1162.78 428.012,1166.62C427.991,1167.26 427.981,1167.91 427.98,1168.55L427.98,1174.06L449.606,1174.06ZM762.282,1248.39L762.282,1258.23C761.021,1258.84 759.223,1259.35 756.887,1259.77C756.632,1259.81 756.375,1259.86 756.119,1259.9C754.912,1260.1 753.699,1260.25 752.482,1260.37C751.341,1260.48 750.257,1260.54 749.231,1260.56C749.085,1260.56 748.94,1260.56 748.794,1260.56C732.363,1260.56 724.147,1251.9 724.147,1234.59L724.147,1184.05L711.978,1184.05L711.978,1177.86L724.147,1172.51L729.573,1154.37L737.014,1154.37L737.014,1174.06L761.661,1174.06L761.661,1184.05L737.014,1184.05L737.014,1234.05C737.004,1235.57 737.129,1237.1 737.388,1238.6C737.917,1241.56 739.006,1243.97 740.656,1245.83C742.557,1247.97 745.165,1249.36 748.003,1249.74C748.88,1249.88 749.767,1249.94 750.654,1249.94C752.726,1249.94 754.795,1249.8 756.845,1249.5C756.978,1249.48 757.111,1249.46 757.244,1249.43C757.865,1249.34 758.484,1249.23 759.101,1249.12C760.284,1248.9 761.287,1248.67 762.109,1248.44C762.166,1248.42 762.224,1248.41 762.282,1248.39ZM514.018,1173.44L512.235,1185.37C508.722,1184.6 505.621,1184.21 502.934,1184.21C496.692,1184.17 490.712,1186.75 486.462,1191.33C486.063,1191.73 485.675,1192.15 485.3,1192.58C480.417,1198.16 477.975,1205.11 477.975,1213.43L477.975,1259.01L465.109,1259.01L465.109,1174.06L475.727,1174.06L477.201,1189.79L477.819,1189.79C479.209,1187.33 480.836,1185 482.678,1182.85C484.588,1180.62 486.787,1178.65 489.214,1177C493.525,1174.05 498.637,1172.48 503.864,1172.51C507.636,1172.51 511.02,1172.82 514.018,1173.44ZM602.05,1229.38C602.865,1225.12 603.261,1220.79 603.232,1216.45C603.232,1215.77 603.223,1215.09 603.204,1214.41C603.076,1209.69 602.501,1205.34 601.481,1201.33C599.974,1195.06 596.971,1189.23 592.73,1184.37C588.568,1179.6 583.147,1176.11 577.091,1174.28C572.972,1173.06 568.694,1172.46 564.398,1172.51C552.101,1172.51 542.491,1176.37 535.567,1184.09C533.902,1185.95 532.438,1187.98 531.198,1190.15C528.957,1194.06 527.341,1198.52 526.351,1203.53C525.542,1207.79 525.149,1212.12 525.178,1216.45C525.165,1219.95 525.436,1223.43 525.988,1226.88C526.693,1231.38 528.039,1235.75 529.985,1239.86C530.282,1240.48 530.594,1241.09 530.921,1241.7C533.856,1247.27 538.248,1251.94 543.626,1255.21C546.202,1256.77 548.965,1258 551.849,1258.87C555.746,1260.02 559.792,1260.59 563.856,1260.56C566.781,1260.57 569.7,1260.33 572.581,1259.83C580.365,1258.61 587.495,1254.75 592.767,1248.89C597.401,1243.73 600.495,1237.23 602.05,1229.38ZM538.512,1216.45C538.495,1219.57 538.702,1222.68 539.13,1225.76C540.056,1232.16 542.019,1237.33 545.02,1241.26C548.363,1245.64 553.298,1248.55 558.757,1249.35C560.544,1249.64 562.353,1249.79 564.165,1249.78C572.588,1249.78 578.983,1246.95 583.35,1241.3C585.253,1238.77 586.707,1235.94 587.65,1232.92C588.493,1230.34 589.1,1227.47 589.47,1224.32C589.766,1221.71 589.91,1219.08 589.901,1216.45C589.901,1209.53 589.003,1203.67 587.205,1198.88C586.285,1196.35 584.985,1193.98 583.35,1191.84C580.099,1187.68 575.403,1184.88 570.192,1184C568.155,1183.61 566.085,1183.42 564.012,1183.44C555.59,1183.44 549.233,1186.2 544.944,1191.73C541.856,1195.71 539.88,1201.1 539.016,1207.88C538.668,1210.73 538.499,1213.59 538.512,1216.45Z" style="fill:rgb(119,119,119);stroke:rgb(119,119,119);stroke-width:2.01px;"/>
        <path id="left_outsideCutPath" d="M1184.88,802.205L1184.88,895.218L1170.71,895.218L1170.71,982.029L1184.88,982.029L1184.88,1068.84L1170.71,1068.84L1170.71,1155.65L1184.88,1155.65L1184.88,1242.46L1170.71,1242.46L1170.71,1329.27L1184.88,1329.27L1184.88,1416.08L1170.71,1416.08L1170.71,1502.89L1184.88,1502.89L1184.88,1595.91L1226.52,1595.91L1226.52,1581.73L1313.33,1581.73L1313.33,1595.91L1354.96,1595.91L1354.96,1502.89L1369.13,1502.89L1369.13,1416.08L1354.96,1416.08L1354.96,1329.27L1369.13,1329.27L1369.13,1242.46L1354.96,1242.46L1354.96,1155.65L1369.13,1155.65L1369.13,1068.84L1354.96,1068.84L1354.96,982.029L1369.13,982.029L1369.13,895.218L1354.96,895.218L1354.96,802.205L1313.33,802.205L1313.33,816.378L1226.52,816.378L1226.52,802.205L1184.88,802.205Z" style="fill:none;stroke:rgb(255,0,0);stroke-width:1.42px;"/>
        <path id="left_labelLayer" d="M1284.04,1192.81L1284.04,1195.31L1278.63,1195.31L1278.63,1214.04L1275.41,1214.04L1275.41,1195.31L1271.62,1195.31L1271.62,1193.85L1275.41,1192.69L1275.41,1191.51C1275.4,1190.51 1275.51,1189.52 1275.72,1188.55C1276.48,1185.3 1278.66,1183.68 1282.26,1183.68C1282.75,1183.68 1283.24,1183.72 1283.72,1183.79C1284.2,1183.86 1284.7,1183.96 1285.23,1184.09C1285.56,1184.17 1285.88,1184.26 1286.21,1184.36L1285.38,1186.93C1284.98,1186.8 1284.57,1186.69 1284.16,1186.59C1283.43,1186.42 1282.77,1186.33 1282.2,1186.33C1281.85,1186.33 1281.5,1186.37 1281.15,1186.45C1280.49,1186.6 1279.9,1186.99 1279.5,1187.54C1278.98,1188.28 1278.69,1189.41 1278.64,1190.94C1278.63,1191.11 1278.63,1191.27 1278.63,1191.43L1278.63,1192.81L1284.04,1192.81ZM1268.98,1201.97L1268.98,1204L1254.35,1204C1254.37,1204.73 1254.44,1205.45 1254.58,1206.17C1254.87,1207.62 1255.42,1208.79 1256.24,1209.68C1257.44,1210.98 1259.12,1211.62 1261.29,1211.62C1263.47,1211.61 1265.63,1211.18 1267.65,1210.36C1267.79,1210.3 1267.93,1210.25 1268.07,1210.19L1268.07,1213.06C1266.93,1213.55 1265.86,1213.9 1264.84,1214.11C1264.4,1214.2 1263.95,1214.27 1263.5,1214.32C1262.8,1214.39 1262.02,1214.43 1261.17,1214.43C1260.12,1214.44 1259.07,1214.32 1258.04,1214.06C1256.4,1213.66 1254.91,1212.79 1253.74,1211.56C1252.65,1210.39 1251.87,1208.96 1251.48,1207.4C1251.17,1206.26 1251.02,1204.99 1251.02,1203.6C1251.01,1202.48 1251.12,1201.35 1251.33,1200.25C1251.71,1198.35 1252.45,1196.75 1253.55,1195.44C1255.03,1193.64 1257.22,1192.55 1259.56,1192.44C1259.82,1192.43 1260.08,1192.42 1260.34,1192.42C1261.27,1192.41 1262.2,1192.53 1263.1,1192.79C1264.48,1193.18 1265.71,1193.97 1266.66,1195.04C1267.68,1196.21 1268.38,1197.63 1268.69,1199.15C1268.89,1200.08 1268.99,1201.03 1268.98,1201.97ZM1297.68,1211.39L1297.68,1213.85C1297.36,1214 1296.92,1214.13 1296.33,1214.24C1296.27,1214.25 1296.2,1214.26 1296.14,1214.27C1295.46,1214.38 1294.85,1214.43 1294.31,1214.43C1290.2,1214.43 1288.14,1212.27 1288.14,1207.94L1288.14,1195.31L1285.1,1195.31L1285.1,1193.75L1288.14,1192.42L1289.5,1187.88L1291.36,1187.88L1291.36,1192.81L1297.53,1192.81L1297.53,1195.31L1291.36,1195.31L1291.36,1207.8C1291.36,1208.18 1291.39,1208.57 1291.46,1208.94C1291.59,1209.68 1291.86,1210.28 1292.27,1210.75C1292.75,1211.28 1293.4,1211.63 1294.11,1211.73C1294.33,1211.76 1294.55,1211.78 1294.77,1211.78C1295.29,1211.78 1295.81,1211.74 1296.32,1211.67C1296.35,1211.66 1296.39,1211.65 1296.42,1211.65C1296.93,1211.57 1297.33,1211.49 1297.64,1211.4C1297.65,1211.4 1297.66,1211.39 1297.68,1211.39ZM1245.38,1183.89L1245.38,1214.04L1242.16,1214.04L1242.16,1183.89L1245.38,1183.89ZM1254.43,1201.39L1265.53,1201.39C1265.54,1200.8 1265.49,1200.21 1265.4,1199.63C1265.3,1199 1265.13,1198.43 1264.91,1197.93C1264.73,1197.5 1264.48,1197.09 1264.17,1196.73C1263.5,1195.93 1262.56,1195.39 1261.52,1195.22C1261.12,1195.15 1260.71,1195.11 1260.3,1195.11C1259.68,1195.11 1259.06,1195.19 1258.47,1195.36C1257.6,1195.62 1256.83,1196.11 1256.22,1196.78C1255.66,1197.4 1255.24,1198.12 1254.96,1198.91C1254.69,1199.64 1254.52,1200.47 1254.43,1201.39Z" style="fill:rgb(119,119,119);stroke:rgb(119,119,119);stroke-width:2.01px;"/>
        <path id="top_outsideCutPath" d="M1391.81,1411.65L1391.81,1453.29L1377.64,1453.29L1377.64,1540.1L1391.81,1540.1L1391.81,1581.73L1481.28,1581.73L1481.28,1595.91L1568.09,1595.91L1568.09,1581.73L1654.9,1581.73L1654.9,1595.91L1741.71,1595.91L1741.71,1581.73L1828.53,1581.73L1828.53,1595.91L1915.34,1595.91L1915.34,1581.73L2002.15,1581.73L2002.15,1595.91L2088.96,1595.91L2088.96,1581.73L2175.77,1581.73L2175.77,1595.91L2262.58,1595.91L2262.58,1581.73L2349.39,1581.73L2349.39,1595.91L2436.2,1595.91L2436.2,1581.73L2525.67,1581.73L2525.67,1540.1L2539.84,1540.1L2539.84,1453.29L2525.67,1453.29L2525.67,1411.65L2436.2,1411.65L2436.2,1397.48L2349.39,1397.48L2349.39,1411.65L2262.58,1411.65L2262.58,1397.48L2175.77,1397.48L2175.77,1411.65L2088.96,1411.65L2088.96,1397.48L2002.15,1397.48L2002.15,1411.65L1915.34,1411.65L1915.34,1397.48L1828.53,1397.48L1828.53,1411.65L1741.71,1411.65L1741.71,1397.48L1654.9,1397.48L1654.9,1411.65L1568.09,1411.65L1568.09,1397.48L1481.28,1397.48L1481.28,1411.65L1391.81,1411.65Z" style="fill:none;stroke:rgb(255,0,0);stroke-width:1.42px;"/>
        <path id="top_labelLayer" d="M1973,1502.27L1972.77,1502.27C1972.86,1503.02 1972.93,1503.77 1972.97,1504.52C1972.99,1504.95 1973,1505.37 1973,1505.8L1973,1514.54L1969.78,1514.54L1969.78,1483.77L1972.4,1483.77L1972.85,1486.67L1973,1486.67C1973.37,1486.16 1973.79,1485.68 1974.25,1485.25C1974.74,1484.81 1975.29,1484.44 1975.89,1484.15C1976.62,1483.82 1977.4,1483.59 1978.2,1483.48C1978.68,1483.41 1979.18,1483.38 1979.67,1483.38C1980.61,1483.37 1981.55,1483.5 1982.45,1483.75C1983.93,1484.17 1985.24,1485.06 1986.19,1486.27C1986.93,1487.23 1987.49,1488.32 1987.84,1489.48C1988.12,1490.41 1988.31,1491.43 1988.41,1492.54C1988.46,1493.15 1988.49,1493.76 1988.48,1494.37C1988.49,1495.43 1988.41,1496.49 1988.24,1497.54C1987.89,1499.55 1987.2,1501.2 1986.15,1502.5C1984.82,1504.16 1982.86,1505.19 1980.74,1505.34C1980.38,1505.38 1980.03,1505.39 1979.67,1505.39C1978.84,1505.4 1978.02,1505.3 1977.22,1505.1C1976.76,1504.98 1976.31,1504.82 1975.88,1504.63C1974.73,1504.11 1973.74,1503.3 1973,1502.27ZM1941.57,1502.35L1941.57,1504.81C1941.26,1504.96 1940.81,1505.09 1940.22,1505.2C1940.16,1505.21 1940.1,1505.22 1940.03,1505.23C1939.35,1505.34 1938.74,1505.39 1938.2,1505.39C1934.09,1505.39 1932.04,1503.23 1932.04,1498.9L1932.04,1486.27L1929,1486.27L1929,1484.72L1932.04,1483.38L1933.4,1478.85L1935.26,1478.85L1935.26,1483.77L1941.42,1483.77L1941.42,1486.27L1935.26,1486.27L1935.26,1498.77C1935.25,1499.15 1935.28,1499.53 1935.35,1499.9C1935.48,1500.64 1935.75,1501.25 1936.16,1501.71C1936.64,1502.25 1937.29,1502.59 1938,1502.69C1938.22,1502.72 1938.44,1502.74 1938.66,1502.74C1939.18,1502.74 1939.7,1502.7 1940.21,1502.63C1940.25,1502.62 1940.28,1502.62 1940.31,1502.61C1940.82,1502.53 1941.22,1502.45 1941.53,1502.36C1941.54,1502.36 1941.56,1502.36 1941.57,1502.35ZM1963.85,1497.6C1964.05,1496.54 1964.15,1495.45 1964.15,1494.37C1964.15,1494.2 1964.14,1494.03 1964.14,1493.86C1964.06,1490.73 1963.18,1488.22 1961.52,1486.35C1960.48,1485.15 1959.13,1484.28 1957.61,1483.82C1956.58,1483.52 1955.51,1483.37 1954.44,1483.38C1953.68,1483.38 1952.93,1483.44 1952.19,1483.57C1950.28,1483.88 1948.53,1484.84 1947.23,1486.28C1946.81,1486.74 1946.45,1487.25 1946.14,1487.79C1945.13,1489.54 1944.63,1491.73 1944.63,1494.37C1944.63,1495.24 1944.7,1496.11 1944.84,1496.97C1945.01,1498.1 1945.35,1499.19 1945.83,1500.22C1945.91,1500.37 1945.99,1500.53 1946.07,1500.68C1946.8,1502.07 1947.9,1503.24 1949.24,1504.06C1949.89,1504.45 1950.58,1504.75 1951.3,1504.97C1952.28,1505.26 1953.29,1505.4 1954.3,1505.39C1955.03,1505.4 1955.76,1505.34 1956.48,1505.21C1958.43,1504.91 1960.21,1503.94 1961.53,1502.48C1961.93,1502.03 1962.29,1501.53 1962.6,1501.01C1963.18,1500.02 1963.6,1498.88 1963.85,1497.6ZM1947.97,1494.37C1947.96,1495.15 1948.01,1495.92 1948.12,1496.7C1948.24,1497.48 1948.41,1498.19 1948.65,1498.83C1948.88,1499.45 1949.2,1500.04 1949.59,1500.57C1950.68,1501.99 1952.28,1502.7 1954.38,1502.7C1955.05,1502.71 1955.71,1502.62 1956.35,1502.46C1957.48,1502.16 1958.47,1501.5 1959.18,1500.58C1959.65,1499.95 1960.02,1499.24 1960.25,1498.48C1960.46,1497.84 1960.61,1497.12 1960.7,1496.34C1960.78,1495.68 1960.82,1495.03 1960.81,1494.37C1960.81,1492.64 1960.59,1491.17 1960.14,1489.97C1959.91,1489.34 1959.59,1488.75 1959.18,1488.21C1958.36,1487.17 1957.19,1486.47 1955.89,1486.25C1955.38,1486.16 1954.86,1486.11 1954.34,1486.11C1953.7,1486.11 1953.06,1486.18 1952.44,1486.34C1951.3,1486.61 1950.29,1487.26 1949.58,1488.19C1948.8,1489.18 1948.31,1490.53 1948.09,1492.23C1948.01,1492.94 1947.96,1493.65 1947.97,1494.37ZM1973,1493.65L1973,1494.37C1973,1495.1 1973.03,1495.84 1973.11,1496.57C1973.3,1498.42 1973.76,1499.83 1974.5,1500.77C1975.1,1501.54 1975.92,1502.1 1976.86,1502.37C1977.39,1502.54 1977.97,1502.64 1978.62,1502.68C1978.84,1502.69 1979.06,1502.7 1979.28,1502.7C1981.12,1502.7 1982.55,1501.96 1983.59,1500.47C1984.07,1499.78 1984.43,1499.01 1984.66,1498.2C1984.86,1497.5 1985.01,1496.74 1985.08,1495.9C1985.13,1495.38 1985.15,1494.86 1985.15,1494.33C1985.15,1493.56 1985.11,1492.79 1985,1492.03C1984.78,1490.47 1984.31,1489.21 1983.59,1488.23C1982.74,1487.04 1981.4,1486.27 1979.93,1486.15C1979.69,1486.13 1979.45,1486.11 1979.2,1486.11C1977.03,1486.11 1975.46,1486.71 1974.5,1487.91C1974.12,1488.39 1973.83,1488.92 1973.63,1489.48C1973.27,1490.47 1973.06,1491.7 1973.01,1493.16C1973.01,1493.32 1973,1493.49 1973,1493.65Z" style="fill:rgb(119,119,119);stroke:rgb(119,119,119);stroke-width:2.01px;"/>
        <path id="back_outsideCutPath" d="M-0,0L-0,93.013L14.173,93.013L14.173,179.824L-0,179.824L-0,266.635L14.173,266.635L14.173,353.446L-0,353.446L-0,440.257L14.173,440.257L14.173,527.068L-0,527.068L-0,613.879L14.173,613.879L14.173,700.69L-0,700.69L-0,793.701L103.643,793.701L103.643,779.528L190.454,779.528L190.454,793.701L277.265,793.701L277.265,779.528L364.076,779.528L364.076,793.701L450.887,793.701L450.887,779.528L537.698,779.528L537.698,793.701L624.509,793.701L624.509,779.528L711.32,779.528L711.32,793.701L798.131,793.701L798.131,779.528L884.942,779.528L884.942,793.701L971.753,793.701L971.753,779.528L1058.56,779.528L1058.56,793.701L1162.2,793.701L1162.2,700.69L1148.03,700.69L1148.03,613.879L1162.2,613.879L1162.2,527.068L1148.03,527.068L1148.03,440.257L1162.2,440.257L1162.2,353.446L1148.03,353.446L1148.03,266.635L1162.2,266.635L1162.2,179.824L1148.03,179.824L1148.03,93.013L1162.2,93.013L1162.2,0L1058.56,0L1058.56,14.173L971.753,14.173L971.753,0L884.942,0L884.942,14.173L798.131,14.173L798.131,0L711.32,0L711.32,14.173L624.509,14.173L624.509,0L537.698,0L537.698,14.173L450.887,14.173L450.887,0L364.076,0L364.076,14.173L277.265,14.173L277.265,0L190.454,0L190.454,14.173L103.643,14.173L103.643,0L-0,0Z" style="fill:none;stroke:rgb(255,0,0);stroke-width:1.42px;"/>
        <path id="back_labelLayer" d="M689.771,412.894L690.392,412.894C691.002,412.032 691.629,411.182 692.274,410.346C693.72,408.468 695.475,406.329 697.538,403.929C698.531,402.775 699.534,401.63 700.546,400.493L727.982,371.426L743.253,371.426L708.84,407.622L745.656,456.378L730.077,456.378L700.081,416.228L690.392,424.599L690.392,456.378L677.679,456.378L677.679,335.772L690.392,335.772L690.392,399.716C690.39,400.524 690.377,401.332 690.352,402.14C690.277,404.787 690.091,408.265 689.794,412.571C689.786,412.679 689.779,412.787 689.771,412.894ZM429.415,445.448L428.485,445.448L425.772,456.378L416.548,456.378L416.548,335.772L429.415,335.772L429.415,365.071C429.418,368.093 429.369,371.114 429.27,374.134C429.166,377.182 429.009,380.051 428.797,382.742L429.415,382.742C434.351,375.664 442.174,371.12 450.768,370.341C452.531,370.131 454.305,370.027 456.08,370.032C459.821,369.995 463.547,370.493 467.147,371.509C473.039,373.191 478.262,376.672 482.083,381.464C487.028,387.568 489.993,395.7 490.978,405.862C491.229,408.508 491.352,411.166 491.346,413.824C491.371,418.076 491.036,422.322 490.346,426.518C488.975,434.534 486.196,441.142 482.006,446.34C476.699,452.989 468.843,457.119 460.358,457.722C458.936,457.861 457.509,457.93 456.08,457.929C452.774,457.947 449.478,457.545 446.272,456.732C444.441,456.26 442.653,455.635 440.926,454.864C436.353,452.823 432.516,449.684 429.415,445.448ZM575.6,456.378L566.065,456.378L563.508,444.285L562.887,444.285C561.548,445.981 560.107,447.594 558.573,449.116C557.023,450.637 555.476,451.929 553.932,452.991C552.76,453.804 551.516,454.51 550.216,455.1C546.745,456.653 542.563,457.567 537.67,457.841C536.595,457.9 535.518,457.929 534.441,457.929C531.743,457.948 529.05,457.69 526.405,457.16C521.698,456.181 517.775,454.267 514.638,451.417C511.407,448.451 509.176,444.552 508.258,440.263C507.713,437.845 507.447,435.372 507.467,432.893C507.101,424.002 512.099,415.709 520.132,411.88C526.417,408.535 535.043,406.583 546.009,406.023C546.881,405.979 547.753,405.944 548.626,405.918L563.043,405.454L563.043,400.181C563.052,398.394 562.932,396.608 562.683,394.838C562.416,393.016 562.001,391.375 561.436,389.914C560.821,388.262 559.907,386.737 558.74,385.415C556.453,382.881 553.071,381.358 548.595,380.846C547.396,380.712 546.19,380.647 544.983,380.65C537.904,380.65 529.894,382.821 520.954,387.162L517.003,377.317C520.644,375.353 524.482,373.776 528.452,372.611C529.217,372.383 529.986,372.169 530.759,371.968C535.746,370.677 540.746,370.032 545.757,370.032C548.527,370.016 551.294,370.212 554.034,370.619C556.871,371.057 559.42,371.74 561.682,372.668C564.107,373.633 566.34,375.024 568.276,376.775C572.104,380.3 574.431,385.493 575.257,392.355C575.492,394.361 575.607,396.38 575.6,398.401L575.6,456.378ZM658.766,374.295L654.814,385.223C652.785,384.417 650.712,383.728 648.604,383.159C647.58,382.88 646.55,382.625 645.514,382.394C642.64,381.753 640.05,381.386 637.744,381.294C637.363,381.279 636.981,381.271 636.599,381.271C621.269,381.271 612.747,389.955 611.033,407.322C610.812,409.637 610.704,411.963 610.71,414.289C610.695,417.325 610.901,420.357 611.328,423.363C611.78,426.43 612.481,429.21 613.431,431.702C614.312,434.067 615.523,436.294 617.029,438.318C620.237,442.582 624.992,445.423 630.266,446.23C632.076,446.544 633.909,446.698 635.746,446.689C642.825,446.689 650.085,445.164 657.527,442.114L657.527,453.509C652.646,456.038 646.679,457.481 639.626,457.838C638.438,457.898 637.248,457.928 636.058,457.929C632.118,457.962 628.189,457.51 624.359,456.585C617.845,455.057 611.956,451.561 607.496,446.573C600.751,439.003 597.379,428.293 597.379,414.445C597.351,410.118 597.719,405.797 598.479,401.536C599.367,396.734 600.795,392.442 602.762,388.658C604.092,386.083 605.734,383.68 607.649,381.504C612.436,376.128 618.839,372.446 625.893,371.013C629.512,370.231 633.206,369.85 636.908,369.876C641.026,369.88 645.132,370.322 649.157,371.194C650.354,371.449 651.544,371.738 652.725,372.061C655.154,372.732 657.167,373.477 658.766,374.295ZM440.198,383.998C438.273,385.116 436.585,386.599 435.229,388.363C431.353,393.402 429.415,401.889 429.415,413.824C429.404,416.761 429.545,419.696 429.837,422.617C430.614,430.057 432.463,435.665 435.385,439.441C437.795,442.507 441.107,444.742 444.852,445.83C446.963,446.492 449.306,446.906 451.879,447.072C452.762,447.128 453.646,447.155 454.53,447.154C456.992,447.18 459.446,446.852 461.815,446.179C466.084,444.953 469.772,442.23 472.201,438.511C473.803,436.071 475.034,433.407 475.855,430.605C477.295,425.896 478.015,420.25 478.015,413.668C478.015,403.186 476.273,395.235 472.791,389.815C472.601,389.52 472.405,389.23 472.201,388.945C469.358,384.965 465.069,382.251 460.256,381.385C458.268,380.987 456.245,380.793 454.218,380.806C448.507,380.806 443.834,381.87 440.198,383.998ZM562.734,422.271L562.734,414.598L549.865,415.142C547.342,415.224 544.824,415.406 542.316,415.689C537.355,416.268 533.319,417.243 530.206,418.615C529.354,418.987 528.529,419.419 527.737,419.907C524.155,422.057 521.743,425.727 521.192,429.868C521.03,430.92 520.95,431.982 520.954,433.046C520.943,434.466 521.096,435.882 521.41,437.267C522.03,439.901 523.286,442.034 525.178,443.665C527.995,446.093 531.935,447.307 536.998,447.307C543.92,447.307 549.558,445.668 553.912,442.389C554.599,441.872 555.254,441.315 555.874,440.719C558.882,437.794 560.971,434.054 561.883,429.959C562.45,427.614 562.734,425.051 562.734,422.271Z" style="fill:rgb(119,119,119);stroke:rgb(119,119,119);stroke-width:2.01px;"/>
        <path id="right_outsideCutPath" d="M1184.88,0L1184.88,93.013L1170.71,93.013L1170.71,179.824L1184.88,179.824L1184.88,266.635L1170.71,266.635L1170.71,353.446L1184.88,353.446L1184.88,440.257L1170.71,440.257L1170.71,527.068L1184.88,527.068L1184.88,613.879L1170.71,613.879L1170.71,700.69L1184.88,700.69L1184.88,793.701L1226.52,793.701L1226.52,779.528L1313.33,779.528L1313.33,793.701L1354.96,793.701L1354.96,700.69L1369.13,700.69L1369.13,613.879L1354.96,613.879L1354.96,527.068L1369.13,527.068L1369.13,440.257L1354.96,440.257L1354.96,353.446L1369.13,353.446L1369.13,266.635L1354.96,266.635L1354.96,179.824L1369.13,179.824L1369.13,93.013L1354.96,93.013L1354.96,0L1313.33,0L1313.33,14.173L1226.52,14.173L1226.52,0L1184.88,0Z" style="fill:none;stroke:rgb(255,0,0);stroke-width:1.42px;"/>
        <path id="right_labelLayer" d="M1294.6,407.16L1291.38,407.16L1291.38,393.42C1291.38,392.943 1291.35,392.466 1291.28,391.995C1291.2,391.494 1291.07,391.044 1290.9,390.645C1290.73,390.241 1290.5,389.869 1290.2,389.546C1289.79,389.111 1289.28,388.785 1288.71,388.596C1288.09,388.377 1287.35,388.267 1286.5,388.267C1285.89,388.263 1285.28,388.316 1284.68,388.426C1283.35,388.677 1282.33,389.231 1281.61,390.087C1281.21,390.567 1280.9,391.112 1280.7,391.697C1280.33,392.68 1280.12,393.901 1280.08,395.362C1280.07,395.594 1280.07,395.825 1280.07,396.057L1280.07,407.16L1276.85,407.16L1276.85,377.008L1280.07,377.008L1280.07,386.135C1280.07,386.506 1280.06,386.876 1280.05,387.247C1280.03,387.592 1280.01,387.915 1279.98,388.213C1279.96,388.432 1279.94,388.65 1279.91,388.868L1280.1,388.868C1280.66,387.971 1281.44,387.226 1282.36,386.7C1282.5,386.612 1282.65,386.53 1282.81,386.453C1283.98,385.865 1285.31,385.571 1286.81,385.571C1287.54,385.567 1288.28,385.625 1289,385.744C1290.53,386.005 1291.75,386.564 1292.65,387.422C1293.27,388.028 1293.75,388.771 1294.03,389.591C1294.41,390.619 1294.6,391.857 1294.6,393.304L1294.6,407.16ZM1265.14,385.92L1272.49,385.92L1272.49,387.955L1268.56,388.42C1268.72,388.633 1268.88,388.858 1269.01,389.095C1269.14,389.327 1269.27,389.581 1269.39,389.857C1269.43,389.969 1269.48,390.081 1269.52,390.195C1269.71,390.67 1269.83,391.166 1269.89,391.671C1269.93,392.001 1269.95,392.332 1269.95,392.664C1269.96,393.439 1269.84,394.211 1269.61,394.951C1269.27,395.997 1268.65,396.929 1267.82,397.644C1267.01,398.342 1266.05,398.847 1265.01,399.124C1264.3,399.322 1263.53,399.443 1262.69,399.487C1262.45,399.499 1262.21,399.504 1261.97,399.504C1261.57,399.505 1261.17,399.483 1260.77,399.438C1260.57,399.416 1260.38,399.386 1260.18,399.351C1259.86,399.519 1259.55,399.718 1259.26,399.946C1258.51,400.554 1258.13,401.267 1258.13,402.083C1258.13,402.646 1258.35,403.067 1258.8,403.345C1258.82,403.353 1258.83,403.362 1258.85,403.37C1259.23,403.595 1259.84,403.729 1260.67,403.773C1260.88,403.783 1261.09,403.788 1261.31,403.787L1265.07,403.787C1265.74,403.783 1266.4,403.831 1267.07,403.929C1267.76,404.036 1268.39,404.204 1268.96,404.433C1269.46,404.635 1269.94,404.907 1270.37,405.241C1271.31,405.98 1271.93,407.053 1272.12,408.237C1272.18,408.643 1272.22,409.053 1272.22,409.465C1272.23,410.285 1272.09,411.101 1271.82,411.874C1271.39,413.044 1270.62,414.009 1269.5,414.768C1269.46,414.793 1269.42,414.818 1269.39,414.842C1268.62,415.334 1267.78,415.714 1266.9,415.97C1266.08,416.218 1265.18,416.402 1264.18,416.523C1263.17,416.64 1262.15,416.697 1261.13,416.693C1260.33,416.697 1259.52,416.647 1258.72,416.543C1257.9,416.431 1257.15,416.258 1256.49,416.024C1255.86,415.81 1255.26,415.514 1254.71,415.142C1254.02,414.686 1253.46,414.07 1253.06,413.348C1252.65,412.602 1252.45,411.74 1252.45,410.763C1252.45,409.472 1252.87,408.355 1253.69,407.412C1254.23,406.811 1254.88,406.331 1255.62,406.006C1256.12,405.782 1256.64,405.61 1257.18,405.493C1256.67,405.259 1256.22,404.898 1255.88,404.444C1255.86,404.413 1255.84,404.381 1255.81,404.348C1255.48,403.876 1255.29,403.316 1255.27,402.738C1255.26,402.675 1255.26,402.611 1255.26,402.548C1255.26,402.146 1255.32,401.745 1255.45,401.363C1255.55,401.06 1255.7,400.773 1255.88,400.513C1256.06,400.264 1256.27,400.035 1256.49,399.827C1256.71,399.625 1256.95,399.425 1257.23,399.229C1257.43,399.087 1257.63,398.953 1257.84,398.826C1256.86,398.417 1256.01,397.737 1255.39,396.865C1255.31,396.753 1255.23,396.638 1255.16,396.522C1254.55,395.558 1254.19,394.454 1254.13,393.316C1254.12,393.144 1254.12,392.972 1254.12,392.8C1254.11,392.06 1254.19,391.323 1254.37,390.603C1254.64,389.378 1255.29,388.268 1256.21,387.422C1256.97,386.753 1257.86,386.259 1258.83,385.977C1259.53,385.765 1260.29,385.629 1261.13,385.569C1261.46,385.545 1261.8,385.534 1262.14,385.534C1262.69,385.532 1263.23,385.566 1263.77,385.637C1264.24,385.697 1264.69,385.791 1265.14,385.92ZM1310.97,404.504L1310.97,406.964C1310.66,407.117 1310.21,407.246 1309.62,407.35C1309.56,407.361 1309.5,407.371 1309.43,407.381C1308.75,407.491 1308.14,407.546 1307.6,407.546C1303.49,407.546 1301.44,405.382 1301.44,401.054L1301.44,388.42L1298.39,388.42L1298.39,386.87L1301.44,385.534L1302.8,380.999L1304.65,380.999L1304.65,385.92L1310.82,385.92L1310.82,388.42L1304.65,388.42L1304.65,400.921C1304.65,401.302 1304.68,401.682 1304.75,402.058C1304.88,402.797 1305.15,403.399 1305.57,403.866C1306.04,404.402 1306.69,404.749 1307.4,404.844C1307.62,404.877 1307.85,404.893 1308.07,404.892C1308.58,404.893 1309.1,404.856 1309.61,404.782C1309.65,404.776 1309.68,404.771 1309.71,404.765C1310.22,404.685 1310.62,404.603 1310.93,404.518C1310.94,404.513 1310.96,404.509 1310.97,404.504ZM1241.1,385.767L1240.65,388.752C1239.77,388.557 1239,388.46 1238.33,388.46C1236.77,388.449 1235.27,389.094 1234.21,390.237C1234.11,390.339 1234.01,390.444 1233.92,390.552C1232.91,391.708 1232.29,393.15 1232.15,394.676C1232.11,395.038 1232.09,395.401 1232.09,395.765L1232.09,407.16L1228.87,407.16L1228.87,385.92L1231.53,385.92L1231.89,389.854L1232.05,389.854C1232.39,389.238 1232.8,388.657 1233.26,388.12C1233.74,387.562 1234.29,387.07 1234.9,386.657C1235.97,385.919 1237.25,385.527 1238.56,385.534C1239,385.534 1239.44,385.553 1239.88,385.591C1240.29,385.626 1240.7,385.685 1241.1,385.767ZM1248.29,385.92L1248.29,407.16L1245.07,407.16L1245.07,385.92L1248.29,385.92ZM1264.04,406.675L1260.18,406.675C1259.74,406.673 1259.29,406.711 1258.85,406.789C1258.35,406.879 1257.9,407.029 1257.5,407.237C1257.24,407.37 1257,407.532 1256.77,407.721C1256.2,408.219 1255.81,408.896 1255.66,409.643C1255.59,409.998 1255.55,410.36 1255.55,410.723C1255.55,411.133 1255.62,411.54 1255.77,411.922C1255.99,412.5 1256.41,412.973 1257.01,413.34C1257.4,413.577 1257.83,413.76 1258.27,413.884C1259.07,414.114 1260.03,414.231 1261.14,414.232C1261.15,414.232 1261.16,414.232 1261.17,414.232C1263.59,414.232 1265.44,413.91 1266.73,413.266C1266.88,413.192 1267.03,413.11 1267.17,413.022C1267.58,412.775 1267.94,412.467 1268.26,412.109C1268.83,411.452 1269.13,410.606 1269.12,409.737C1269.12,409.447 1269.09,409.157 1269.04,408.872C1268.97,408.541 1268.86,408.252 1268.71,408.005C1268.54,407.736 1268.32,407.51 1268.05,407.344C1267.82,407.208 1267.58,407.101 1267.33,407.027C1266.56,406.792 1265.47,406.675 1264.04,406.675ZM1257.3,392.723C1257.29,393.165 1257.34,393.606 1257.43,394.038C1257.61,394.891 1257.99,395.576 1258.56,396.094C1259.04,396.522 1259.61,396.834 1260.23,397.003C1260.65,397.126 1261.12,397.201 1261.63,397.227C1261.77,397.235 1261.92,397.239 1262.06,397.239C1262.68,397.246 1263.3,397.172 1263.9,397.018C1265.3,396.638 1266.19,395.761 1266.57,394.387C1266.71,393.824 1266.78,393.245 1266.77,392.664C1266.78,392.025 1266.7,391.387 1266.54,390.77C1266.13,389.355 1265.21,388.459 1263.77,388.083C1263.19,387.94 1262.6,387.872 1262.01,387.879C1261.54,387.875 1261.08,387.919 1260.63,388.009C1260.07,388.126 1259.57,388.322 1259.14,388.596C1258.92,388.741 1258.71,388.91 1258.52,389.1C1258.08,389.542 1257.76,390.082 1257.58,390.674C1257.39,391.263 1257.3,391.946 1257.3,392.723ZM1244.84,379.576C1244.81,379.771 1244.8,379.968 1244.8,380.166C1244.8,380.287 1244.8,380.408 1244.82,380.529C1244.84,380.746 1244.88,380.943 1244.94,381.121C1245.02,381.371 1245.16,381.598 1245.34,381.784C1245.53,381.969 1245.75,382.111 1245.99,382.201C1246.22,382.281 1246.46,382.32 1246.7,382.317C1247.2,382.325 1247.68,382.133 1248.04,381.784C1248.3,381.537 1248.47,381.2 1248.55,380.775C1248.58,380.574 1248.6,380.37 1248.6,380.166C1248.6,380.049 1248.59,379.933 1248.58,379.817C1248.53,379.267 1248.35,378.848 1248.04,378.558C1247.66,378.209 1247.21,378.034 1246.7,378.034C1246.64,378.034 1246.59,378.036 1246.54,378.04C1246.09,378.06 1245.67,378.24 1245.34,378.547C1245.2,378.682 1245.09,378.843 1245.01,379.02C1244.93,379.185 1244.88,379.37 1244.84,379.576Z" style="fill:rgb(119,119,119);stroke:rgb(119,119,119);stroke-width:2.01px;"/>
        <path id="bottom_outsideCutPath" d="M1391.81,1204.72L1391.81,1246.36L1377.64,1246.36L1377.64,1333.17L1391.81,1333.17L1391.81,1374.8L1481.28,1374.8L1481.28,1388.98L1568.09,1388.98L1568.09,1374.8L1654.9,1374.8L1654.9,1388.98L1741.71,1388.98L1741.71,1374.8L1828.53,1374.8L1828.53,1388.98L1915.34,1388.98L1915.34,1374.8L2002.15,1374.8L2002.15,1388.98L2088.96,1388.98L2088.96,1374.8L2175.77,1374.8L2175.77,1388.98L2262.58,1388.98L2262.58,1374.8L2349.39,1374.8L2349.39,1388.98L2436.2,1388.98L2436.2,1374.8L2525.67,1374.8L2525.67,1333.17L2539.84,1333.17L2539.84,1246.36L2525.67,1246.36L2525.67,1204.72L2436.2,1204.72L2436.2,1190.55L2349.39,1190.55L2349.39,1204.72L2262.58,1204.72L2262.58,1190.55L2175.77,1190.55L2175.77,1204.72L2088.96,1204.72L2088.96,1190.55L2002.15,1190.55L2002.15,1204.72L1915.34,1204.72L1915.34,1190.55L1828.53,1190.55L1828.53,1204.72L1741.71,1204.72L1741.71,1190.55L1654.9,1190.55L1654.9,1204.72L1568.09,1204.72L1568.09,1190.55L1481.28,1190.55L1481.28,1204.72L1391.81,1204.72Z" style="fill:none;stroke:rgb(255,0,0);stroke-width:1.42px;"/>
        <path id="bottom_labelLayer" d="M2024.02,1304.65L2020.81,1304.65L2020.81,1290.83C2020.81,1290.36 2020.78,1289.9 2020.71,1289.43C2020.64,1288.96 2020.53,1288.53 2020.38,1288.15C2020.23,1287.74 2020,1287.36 2019.72,1287.02C2019.3,1286.54 2018.76,1286.19 2018.15,1286.01C2017.77,1285.88 2017.36,1285.81 2016.9,1285.77C2016.72,1285.76 2016.53,1285.75 2016.35,1285.75C2015.78,1285.75 2015.22,1285.8 2014.66,1285.91C2014,1286.05 2013.41,1286.28 2012.91,1286.6C2012.53,1286.84 2012.2,1287.13 2011.91,1287.48C2011.52,1287.96 2011.21,1288.52 2011.01,1289.11C2010.66,1290.1 2010.48,1291.31 2010.48,1292.75L2010.48,1304.65L2007.26,1304.65L2007.26,1290.83C2007.26,1290.36 2007.23,1289.9 2007.16,1289.43C2007.09,1288.96 2006.99,1288.53 2006.84,1288.15C2006.68,1287.74 2006.46,1287.36 2006.17,1287.02C2005.45,1286.18 2004.32,1285.75 2002.79,1285.75C2001.38,1285.75 2000.24,1286.05 1999.36,1286.63C1998.97,1286.89 1998.64,1287.2 1998.36,1287.56C1997.42,1288.77 1996.95,1290.75 1996.95,1293.5L1996.95,1304.65L1993.74,1304.65L1993.74,1283.41L1996.35,1283.41L1996.88,1286.31L1997.03,1286.31C1997.64,1285.28 1998.53,1284.44 1999.6,1283.89C2000.54,1283.4 2001.56,1283.12 2002.62,1283.05C2002.85,1283.03 2003.08,1283.02 2003.31,1283.02C2004.11,1283.01 2004.9,1283.1 2005.68,1283.27C2006.65,1283.49 2007.48,1283.87 2008.15,1284.4C2008.89,1284.99 2009.46,1285.75 2009.82,1286.62L2009.97,1286.62C2010.58,1285.57 2011.45,1284.7 2012.51,1284.11C2012.58,1284.07 2012.65,1284.03 2012.73,1283.99C2013.65,1283.5 2014.67,1283.19 2015.71,1283.08C2016.08,1283.04 2016.46,1283.02 2016.83,1283.02C2017.51,1283.02 2018.19,1283.07 2018.86,1283.19C2019.61,1283.33 2020.28,1283.55 2020.87,1283.86C2021.38,1284.12 2021.83,1284.46 2022.23,1284.87C2022.76,1285.43 2023.16,1286.09 2023.42,1286.82C2023.82,1287.89 2024.02,1289.22 2024.02,1290.79L2024.02,1304.65ZM1896.67,1301.91L1896.44,1301.91L1895.76,1304.65L1893.46,1304.65L1893.46,1274.49L1896.67,1274.49L1896.67,1281.82C1896.67,1282.57 1896.66,1283.33 1896.64,1284.08C1896.61,1284.85 1896.57,1285.57 1896.52,1286.24L1896.67,1286.24C1897.91,1284.47 1899.86,1283.33 1902.01,1283.14C1902.45,1283.08 1902.9,1283.06 1903.34,1283.06C1904.28,1283.05 1905.21,1283.17 1906.11,1283.43C1907.58,1283.85 1908.88,1284.72 1909.84,1285.92C1910.59,1286.87 1911.16,1287.95 1911.5,1289.12C1911.94,1290.52 1912.16,1292.15 1912.16,1294.01C1912.16,1295.07 1912.08,1296.13 1911.91,1297.18C1911.56,1299.18 1910.87,1300.84 1909.82,1302.14C1908.5,1303.8 1906.53,1304.83 1904.41,1304.98C1904.05,1305.02 1903.7,1305.03 1903.34,1305.03C1902.51,1305.04 1901.69,1304.94 1900.89,1304.73C1900.43,1304.62 1899.98,1304.46 1899.55,1304.27C1898.4,1303.75 1897.41,1302.94 1896.67,1301.91ZM1951.51,1301.99L1951.51,1304.45C1951.2,1304.6 1950.75,1304.73 1950.16,1304.84C1950.1,1304.85 1950.04,1304.86 1949.97,1304.87C1949.29,1304.98 1948.68,1305.03 1948.14,1305.03C1944.03,1305.03 1941.98,1302.87 1941.98,1298.54L1941.98,1285.91L1938.94,1285.91L1938.94,1284.36L1941.98,1283.02L1943.33,1278.49L1945.2,1278.49L1945.2,1283.41L1951.36,1283.41L1951.36,1285.91L1945.2,1285.91L1945.2,1298.41C1945.19,1298.79 1945.23,1299.17 1945.29,1299.54C1945.42,1300.28 1945.69,1300.88 1946.11,1301.35C1946.58,1301.89 1947.23,1302.23 1947.94,1302.33C1948.16,1302.36 1948.38,1302.38 1948.61,1302.38C1949.12,1302.38 1949.64,1302.34 1950.15,1302.27C1950.19,1302.26 1950.22,1302.26 1950.25,1302.25C1950.76,1302.17 1951.16,1302.09 1951.47,1302C1951.48,1302 1951.5,1301.99 1951.51,1301.99ZM1965.52,1301.99L1965.52,1304.45C1965.21,1304.6 1964.76,1304.73 1964.17,1304.84C1964.11,1304.85 1964.05,1304.86 1963.98,1304.87C1963.3,1304.98 1962.69,1305.03 1962.15,1305.03C1958.04,1305.03 1955.99,1302.87 1955.99,1298.54L1955.99,1285.91L1952.95,1285.91L1952.95,1284.36L1955.99,1283.02L1957.35,1278.49L1959.2,1278.49L1959.2,1283.41L1965.37,1283.41L1965.37,1285.91L1959.2,1285.91L1959.2,1298.41C1959.2,1298.79 1959.23,1299.17 1959.3,1299.54C1959.43,1300.28 1959.7,1300.88 1960.12,1301.35C1960.59,1301.89 1961.24,1302.23 1961.95,1302.33C1962.17,1302.36 1962.39,1302.38 1962.62,1302.38C1963.13,1302.38 1963.65,1302.34 1964.16,1302.27C1964.2,1302.26 1964.23,1302.26 1964.26,1302.25C1964.77,1302.17 1965.17,1302.09 1965.48,1302C1965.49,1302 1965.51,1301.99 1965.52,1301.99ZM1935.81,1297.24C1936.02,1296.17 1936.12,1295.09 1936.11,1294.01C1936.11,1293.84 1936.11,1293.67 1936.1,1293.5C1936.02,1290.36 1935.14,1287.86 1933.48,1285.99C1932.44,1284.79 1931.09,1283.92 1929.57,1283.46C1928.54,1283.16 1927.47,1283.01 1926.4,1283.02C1925.65,1283.02 1924.9,1283.08 1924.15,1283.21C1922.24,1283.52 1920.49,1284.48 1919.19,1285.92C1918.78,1286.38 1918.41,1286.89 1918.1,1287.43C1917.1,1289.18 1916.6,1291.37 1916.6,1294.01C1916.59,1294.88 1916.66,1295.75 1916.8,1296.61C1916.97,1297.74 1917.31,1298.83 1917.8,1299.86C1917.87,1300.01 1917.95,1300.17 1918.03,1300.32C1918.76,1301.71 1919.86,1302.88 1921.21,1303.7C1921.85,1304.09 1922.54,1304.39 1923.26,1304.61C1924.24,1304.9 1925.25,1305.04 1926.26,1305.03C1926.99,1305.04 1927.72,1304.98 1928.44,1304.85C1930.39,1304.55 1932.17,1303.58 1933.49,1302.12C1933.9,1301.66 1934.26,1301.17 1934.56,1300.65C1935.14,1299.65 1935.56,1298.52 1935.81,1297.24ZM1987.8,1297.24C1988,1296.17 1988.1,1295.09 1988.1,1294.01C1988.1,1293.84 1988.09,1293.67 1988.09,1293.5C1988.01,1290.36 1987.13,1287.86 1985.47,1285.99C1984.43,1284.79 1983.08,1283.92 1981.56,1283.46C1980.53,1283.16 1979.46,1283.01 1978.39,1283.02C1977.64,1283.02 1976.89,1283.08 1976.14,1283.21C1974.23,1283.52 1972.48,1284.48 1971.18,1285.92C1970.77,1286.38 1970.4,1286.89 1970.09,1287.43C1969.09,1289.18 1968.59,1291.37 1968.59,1294.01C1968.58,1294.88 1968.65,1295.75 1968.79,1296.61C1968.96,1297.74 1969.3,1298.83 1969.78,1299.86C1969.86,1300.01 1969.94,1300.17 1970.02,1300.32C1970.75,1301.71 1971.85,1302.88 1973.2,1303.7C1973.84,1304.09 1974.53,1304.39 1975.25,1304.61C1976.23,1304.9 1977.24,1305.04 1978.25,1305.03C1978.98,1305.04 1979.71,1304.98 1980.43,1304.85C1982.38,1304.55 1984.16,1303.58 1985.48,1302.12C1985.89,1301.66 1986.24,1301.17 1986.55,1300.65C1987.13,1299.65 1987.55,1298.52 1987.8,1297.24ZM1919.93,1294.01C1919.92,1294.79 1919.98,1295.56 1920.08,1296.33C1920.2,1297.12 1920.37,1297.84 1920.61,1298.47C1920.84,1299.09 1921.16,1299.68 1921.56,1300.21C1922.64,1301.63 1924.24,1302.34 1926.34,1302.34C1927.01,1302.35 1927.67,1302.26 1928.31,1302.09C1929.44,1301.8 1930.43,1301.14 1931.14,1300.22C1931.61,1299.59 1931.98,1298.88 1932.21,1298.12C1932.42,1297.48 1932.57,1296.76 1932.67,1295.97C1932.74,1295.32 1932.78,1294.66 1932.78,1294.01C1932.78,1292.27 1932.55,1290.81 1932.1,1289.61C1931.87,1288.98 1931.55,1288.39 1931.14,1287.85C1930.32,1286.81 1929.15,1286.11 1927.85,1285.89C1927.34,1285.8 1926.82,1285.75 1926.3,1285.75C1925.66,1285.75 1925.02,1285.82 1924.4,1285.98C1923.26,1286.25 1922.25,1286.9 1921.54,1287.83C1920.76,1288.82 1920.27,1290.17 1920.05,1291.86C1919.97,1292.58 1919.92,1293.29 1919.93,1294.01ZM1971.92,1294.01C1971.91,1294.79 1971.96,1295.56 1972.07,1296.33C1972.18,1297.12 1972.36,1297.84 1972.6,1298.47C1972.83,1299.09 1973.15,1299.68 1973.55,1300.21C1974.63,1301.63 1976.23,1302.34 1978.33,1302.34C1979,1302.35 1979.66,1302.26 1980.3,1302.09C1981.43,1301.8 1982.42,1301.14 1983.13,1300.22C1983.6,1299.59 1983.97,1298.88 1984.2,1298.12C1984.41,1297.48 1984.57,1296.76 1984.66,1295.97C1984.73,1295.32 1984.77,1294.66 1984.77,1294.01C1984.77,1292.27 1984.54,1290.81 1984.09,1289.61C1983.86,1288.98 1983.54,1288.39 1983.13,1287.85C1982.31,1286.81 1981.14,1286.11 1979.84,1285.89C1979.33,1285.8 1978.81,1285.75 1978.29,1285.75C1977.65,1285.75 1977.01,1285.82 1976.39,1285.98C1975.25,1286.25 1974.24,1286.9 1973.53,1287.83C1972.75,1288.82 1972.26,1290.17 1972.04,1291.86C1971.96,1292.58 1971.91,1293.29 1971.92,1294.01ZM1902.88,1285.75C1902.29,1285.75 1901.7,1285.8 1901.12,1285.91C1900.46,1286.04 1899.88,1286.25 1899.37,1286.55C1898.89,1286.83 1898.47,1287.2 1898.13,1287.64C1897.78,1288.1 1897.52,1288.62 1897.33,1289.16C1896.97,1290.16 1896.76,1291.43 1896.69,1292.96C1896.68,1293.31 1896.67,1293.66 1896.67,1294.01C1896.67,1294.74 1896.71,1295.47 1896.78,1296.2C1896.97,1298.07 1897.43,1299.47 1898.17,1300.41C1898.77,1301.18 1899.6,1301.74 1900.53,1302.01C1901.06,1302.17 1901.65,1302.28 1902.29,1302.32C1902.51,1302.33 1902.73,1302.34 1902.95,1302.34C1903.57,1302.35 1904.18,1302.26 1904.77,1302.09C1905.84,1301.79 1906.76,1301.11 1907.37,1300.18C1907.77,1299.57 1908.08,1298.9 1908.28,1298.2C1908.64,1297.03 1908.83,1295.61 1908.83,1293.97C1908.83,1291.35 1908.39,1289.36 1907.52,1288C1907.47,1287.93 1907.42,1287.86 1907.37,1287.79C1906.66,1286.79 1905.59,1286.11 1904.38,1285.9C1903.89,1285.8 1903.38,1285.75 1902.88,1285.75Z" style="fill:rgb(119,119,119);stroke:rgb(119,119,119);stroke-width:2.01px;"/>
    </g>
</svg>
