<?xml version="1.0" encoding="UTF-8" standalone="no"?>
<!DOCTYPE svg PUBLIC "-//W3C//DTD SVG 1.1//EN" "http://www.w3.org/Graphics/SVG/1.1/DTD/svg11.dtd">
<svg width="100%" height="100%" viewBox="0 0 205 800" version="1.1" xmlns="http://www.w3.org/2000/svg" xmlns:xlink="http://www.w3.org/1999/xlink" xml:space="preserve" xmlns:serif="http://www.serif.com/" style="fill-rule:evenodd;clip-rule:evenodd;stroke-linecap:round;">
    <g id="right_outsideCutPath" transform="matrix(1,0,0,1,-1167.79,2.92189)">
        <path d="M1184.88,0L1184.88,93.013L1170.71,93.013L1170.71,179.824L1184.88,179.824L1184.88,266.635L1170.71,266.635L1170.71,353.446L1184.88,353.446L1184.88,440.257L1170.71,440.257L1170.71,527.068L1184.88,527.068L1184.88,613.879L1170.71,613.879L1170.71,700.69L1184.88,700.69L1184.88,793.701L1226.52,793.701L1226.52,779.528L1313.33,779.528L1313.33,793.701L1354.96,793.701L1354.96,700.69L1369.13,700.69L1369.13,613.879L1354.96,613.879L1354.96,527.068L1369.13,527.068L1369.13,440.257L1354.96,440.257L1354.96,353.446L1369.13,353.446L1369.13,266.635L1354.96,266.635L1354.96,179.824L1369.13,179.824L1369.13,93.013L1354.96,93.013L1354.96,0L1313.33,0L1313.33,14.173L1226.52,14.173L1226.52,0L1184.88,0Z" style="fill:none;stroke:rgb(255,0,0);stroke-width:1.42px;"/>
    </g>
</svg>
