<?xml version="1.0" encoding="UTF-8" standalone="no"?>
<!DOCTYPE svg PUBLIC "-//W3C//DTD SVG 1.1//EN" "http://www.w3.org/Graphics/SVG/1.1/DTD/svg11.dtd">
<svg width="100%" height="100%" viewBox="0 0 1169 800" version="1.1" xmlns="http://www.w3.org/2000/svg" xmlns:xlink="http://www.w3.org/1999/xlink" xml:space="preserve" xmlns:serif="http://www.serif.com/" style="fill-rule:evenodd;clip-rule:evenodd;stroke-linecap:round;">
    <g id="front_outsideCutPath" transform="matrix(1,0,0,1,2.92189,-799.283)">
        <path d="M-0,802.205L-0,895.218L14.173,895.218L14.173,982.029L-0,982.029L-0,1068.84L14.173,1068.84L14.173,1155.65L-0,1155.65L-0,1242.46L14.173,1242.46L14.173,1329.27L-0,1329.27L-0,1416.08L14.173,1416.08L14.173,1502.89L-0,1502.89L-0,1595.91L103.643,1595.91L103.643,1581.73L190.454,1581.73L190.454,1595.91L277.265,1595.91L277.265,1581.73L364.076,1581.73L364.076,1595.91L450.887,1595.91L450.887,1581.73L537.698,1581.73L537.698,1595.91L624.509,1595.91L624.509,1581.73L711.32,1581.73L711.32,1595.91L798.131,1595.91L798.131,1581.73L884.942,1581.73L884.942,1595.91L971.753,1595.91L971.753,1581.73L1058.56,1581.73L1058.56,1595.91L1162.2,1595.91L1162.2,1502.89L1148.03,1502.89L1148.03,1416.08L1162.2,1416.08L1162.2,1329.27L1148.03,1329.27L1148.03,1242.46L1162.2,1242.46L1162.2,1155.65L1148.03,1155.65L1148.03,1068.84L1162.2,1068.84L1162.2,982.029L1148.03,982.029L1148.03,895.218L1162.2,895.218L1162.2,802.205L1058.56,802.205L1058.56,816.378L971.753,816.378L971.753,802.205L884.942,802.205L884.942,816.378L798.131,816.378L798.131,802.205L711.32,802.205L711.32,816.378L624.509,816.378L624.509,802.205L537.698,802.205L537.698,816.378L450.887,816.378L450.887,802.205L364.076,802.205L364.076,816.378L277.265,816.378L277.265,802.205L190.454,802.205L190.454,816.378L103.643,816.378L103.643,802.205L-0,802.205Z" style="fill:none;stroke:rgb(255,0,0);stroke-width:1.42px;"/>
    </g>
    <g transform="matrix(1,0,0,1,-25.814,0)">
        <g id="Bildschrim" transform="matrix(0.746205,0,0,1.24721,90.9035,-1085.07)">
            <rect x="98.587" y="1076.9" width="455.85" height="227.279" style="fill:none;stroke:black;stroke-width:0.89px;stroke-linejoin:round;stroke-miterlimit:1.5;"/>
        </g>
        <g id="Bildschrim1" serif:id="Bildschrim" transform="matrix(0.0414558,0,0,1.24721,510.674,-1085.07)">
            <rect x="98.587" y="1076.9" width="455.85" height="227.279" style="fill:none;stroke:black;stroke-width:1.04px;stroke-linejoin:round;stroke-miterlimit:1.5;"/>
        </g>
        <g id="Bildschrim2" serif:id="Bildschrim" transform="matrix(0.0414558,0,0,1.24721,131.351,-1085.07)">
            <rect x="98.587" y="1076.9" width="455.85" height="227.279" style="fill:none;stroke:black;stroke-width:1.04px;stroke-linejoin:round;stroke-miterlimit:1.5;"/>
        </g>
    </g>
    <g transform="matrix(1,0,0,1,17.6662,0)">
        <g id="Buttons">
            <g transform="matrix(1.09099,0,0,1.09099,-259.307,-177.137)">
                <path d="M586.655,360.788C591.435,360.788 595.316,364.669 595.316,369.449C595.316,374.229 591.435,378.11 586.655,378.11C581.875,378.11 577.994,374.229 577.994,369.449C577.994,364.669 581.875,360.788 586.655,360.788ZM586.655,362.01C590.76,362.01 594.093,365.343 594.093,369.449C594.093,373.554 590.76,376.887 586.655,376.887C582.549,376.887 579.216,373.554 579.216,369.449C579.216,365.343 582.549,362.01 586.655,362.01Z"/>
            </g>
            <g transform="matrix(1.09099,0,0,1.09099,-297.315,-177.137)">
                <path d="M586.655,360.788C591.435,360.788 595.316,364.669 595.316,369.449C595.316,374.229 591.435,378.11 586.655,378.11C581.875,378.11 577.994,374.229 577.994,369.449C577.994,364.669 581.875,360.788 586.655,360.788ZM586.655,362.01C590.76,362.01 594.093,365.343 594.093,369.449C594.093,373.554 590.76,376.887 586.655,376.887C582.549,376.887 579.216,373.554 579.216,369.449C579.216,365.343 582.549,362.01 586.655,362.01Z"/>
            </g>
            <g transform="matrix(1.09099,0,0,1.09099,-221.298,-177.137)">
                <path d="M586.655,360.788C591.435,360.788 595.316,364.669 595.316,369.449C595.316,374.229 591.435,378.11 586.655,378.11C581.875,378.11 577.994,374.229 577.994,369.449C577.994,364.669 581.875,360.788 586.655,360.788ZM586.655,362.01C590.76,362.01 594.093,365.343 594.093,369.449C594.093,373.554 590.76,376.887 586.655,376.887C582.549,376.887 579.216,373.554 579.216,369.449C579.216,365.343 582.549,362.01 586.655,362.01Z"/>
            </g>
        </g>
    </g>
</svg>
