<?xml version="1.0" encoding="UTF-8" standalone="no"?>
<!DOCTYPE svg PUBLIC "-//W3C//DTD SVG 1.1//EN" "http://www.w3.org/Graphics/SVG/1.1/DTD/svg11.dtd">
<svg width="100%" height="100%" viewBox="0 0 205 800" version="1.1" xmlns="http://www.w3.org/2000/svg" xmlns:xlink="http://www.w3.org/1999/xlink" xml:space="preserve" xmlns:serif="http://www.serif.com/" style="fill-rule:evenodd;clip-rule:evenodd;stroke-linejoin:round;stroke-miterlimit:2;">
    <g id="Rahmen" transform="matrix(1.00901,0,0,87.472,-0.654185,-8374.21)">
        <path d="M186.857,95.925L17.108,95.925L17.108,104.688L186.857,104.688L186.857,95.925ZM185.907,95.936L185.907,104.677C185.907,104.677 18.058,104.677 18.058,104.677C18.058,104.677 18.058,95.936 18.058,95.936C31.622,95.936 185.907,95.936 185.907,95.936L185.907,95.936Z"/>
    </g>
    <g id="Loch-unten" serif:id="Loch unten" transform="matrix(1.15388,0,0,1.15388,-15.175,-96.1866)">
        <path d="M101.982,581.799C121.642,581.799 137.603,597.761 137.603,617.42C137.603,637.08 121.642,653.042 101.982,653.042C82.323,653.042 66.361,637.08 66.361,617.42C66.361,597.761 82.323,581.799 101.982,581.799ZM101.982,582.366C121.33,582.366 137.037,598.073 137.037,617.42C137.037,636.768 121.33,652.475 101.982,652.475C82.635,652.475 66.928,636.768 66.928,617.42C66.928,598.073 82.635,582.366 101.982,582.366Z"/>
    </g>
    <g id="Loch-oben" serif:id="Loch oben" transform="matrix(1.15388,0,0,-1.15388,-15.175,895.746)">
        <path d="M101.982,581.799C121.642,581.799 137.603,597.761 137.603,617.42C137.603,637.08 121.642,653.042 101.982,653.042C82.323,653.042 66.361,637.08 66.361,617.42C66.361,597.761 82.323,581.799 101.982,581.799ZM101.982,582.366C82.635,582.366 66.928,598.073 66.928,617.42C66.928,636.768 82.635,652.475 101.982,652.475C121.33,652.475 137.037,636.768 137.037,617.42C137.037,598.073 121.33,582.366 101.982,582.366Z"/>
    </g>
</svg>
