<?xml version="1.0" encoding="UTF-8" standalone="no"?>
<!DOCTYPE svg PUBLIC "-//W3C//DTD SVG 1.1//EN" "http://www.w3.org/Graphics/SVG/1.1/DTD/svg11.dtd">
<svg width="100%" height="100%" viewBox="0 0 1169 800" version="1.1" xmlns="http://www.w3.org/2000/svg" xmlns:xlink="http://www.w3.org/1999/xlink" xml:space="preserve" xmlns:serif="http://www.serif.com/" style="fill-rule:evenodd;clip-rule:evenodd;stroke-linecap:round;">
    <g id="back_outsideCutPath" transform="matrix(1,0,0,1,2.92189,2.92189)">
        <path d="M-0,0L-0,93.013L14.173,93.013L14.173,179.824L-0,179.824L-0,266.635L14.173,266.635L14.173,353.446L-0,353.446L-0,440.257L14.173,440.257L14.173,527.068L-0,527.068L-0,613.879L14.173,613.879L14.173,700.69L-0,700.69L-0,793.701L103.643,793.701L103.643,779.528L190.454,779.528L190.454,793.701L277.265,793.701L277.265,779.528L364.076,779.528L364.076,793.701L450.887,793.701L450.887,779.528L537.698,779.528L537.698,793.701L624.509,793.701L624.509,779.528L711.32,779.528L711.32,793.701L798.131,793.701L798.131,779.528L884.942,779.528L884.942,793.701L971.753,793.701L971.753,779.528L1058.56,779.528L1058.56,793.701L1162.2,793.701L1162.2,700.69L1148.03,700.69L1148.03,613.879L1162.2,613.879L1162.2,527.068L1148.03,527.068L1148.03,440.257L1162.2,440.257L1162.2,353.446L1148.03,353.446L1148.03,266.635L1162.2,266.635L1162.2,179.824L1148.03,179.824L1148.03,93.013L1162.2,93.013L1162.2,0L1058.56,0L1058.56,14.173L971.753,14.173L971.753,0L884.942,0L884.942,14.173L798.131,14.173L798.131,0L711.32,0L711.32,14.173L624.509,14.173L624.509,0L537.698,0L537.698,14.173L450.887,14.173L450.887,0L364.076,0L364.076,14.173L277.265,14.173L277.265,0L190.454,0L190.454,14.173L103.643,14.173L103.643,0L-0,0Z" style="fill:none;stroke:rgb(255,0,0);stroke-width:1.42px;"/>
    </g>
    <g transform="matrix(1,0,0,1,-88.5999,-33.7985)">
        <g>
            <g transform="matrix(1.84741e-17,-0.301705,0.301705,1.84741e-17,704.468,545.557)">
                <path d="M496.45,404.992C496.45,335.806 440.363,279.72 371.177,279.72C301.991,279.72 245.905,335.806 245.905,404.992L371.177,404.992L496.45,404.992Z" style="fill:none;stroke:black;stroke-width:4.24px;stroke-linejoin:round;stroke-miterlimit:1.5;"/>
            </g>
            <g transform="matrix(0.301705,0,0,0.301705,409.137,311.383)">
                <circle cx="371.177" cy="404.992" r="125.272" style="fill:none;stroke:black;stroke-width:4.24px;stroke-linejoin:round;stroke-miterlimit:1.5;"/>
            </g>
        </g>
    </g>
    <path d="M1077.44,80.464L737.283,80.464L740.107,714.031L1079.93,714.031" style="fill:none;stroke:black;stroke-width:1.28px;stroke-linejoin:round;stroke-miterlimit:1.5;"/>
</svg>
