<?xml version="1.0" encoding="UTF-8" standalone="no"?>
<!DOCTYPE svg PUBLIC "-//W3C//DTD SVG 1.1//EN" "http://www.w3.org/Graphics/SVG/1.1/DTD/svg11.dtd">
<svg width="100%" height="100%" viewBox="0 0 1169 205" version="1.1" xmlns="http://www.w3.org/2000/svg" xmlns:xlink="http://www.w3.org/1999/xlink" xml:space="preserve" xmlns:serif="http://www.serif.com/" style="fill-rule:evenodd;clip-rule:evenodd;stroke-linecap:round;">
    <g id="bottom_outsideCutPath" transform="matrix(1,0,0,1,-1374.72,-1187.63)">
        <path d="M1391.81,1204.72L1391.81,1246.36L1377.64,1246.36L1377.64,1333.17L1391.81,1333.17L1391.81,1374.8L1481.28,1374.8L1481.28,1388.98L1568.09,1388.98L1568.09,1374.8L1654.9,1374.8L1654.9,1388.98L1741.71,1388.98L1741.71,1374.8L1828.53,1374.8L1828.53,1388.98L1915.34,1388.98L1915.34,1374.8L2002.15,1374.8L2002.15,1388.98L2088.96,1388.98L2088.96,1374.8L2175.77,1374.8L2175.77,1388.98L2262.58,1388.98L2262.58,1374.8L2349.39,1374.8L2349.39,1388.98L2436.2,1388.98L2436.2,1374.8L2525.67,1374.8L2525.67,1333.17L2539.84,1333.17L2539.84,1246.36L2525.67,1246.36L2525.67,1204.72L2436.2,1204.72L2436.2,1190.55L2349.39,1190.55L2349.39,1204.72L2262.58,1204.72L2262.58,1190.55L2175.77,1190.55L2175.77,1204.72L2088.96,1204.72L2088.96,1190.55L2002.15,1190.55L2002.15,1204.72L1915.34,1204.72L1915.34,1190.55L1828.53,1190.55L1828.53,1204.72L1741.71,1204.72L1741.71,1190.55L1654.9,1190.55L1654.9,1204.72L1568.09,1204.72L1568.09,1190.55L1481.28,1190.55L1481.28,1204.72L1391.81,1204.72Z" style="fill:none;stroke:rgb(255,0,0);stroke-width:1.42px;"/>
    </g>
</svg>
